<svg width="30" height="47" viewBox="0 0 30 47" fill="none" xmlns="http://www.w3.org/2000/svg">
<path d="M0.845375 2.22505C0.798269 1.20573 1.58711 0.334759 2.60731 0.355656C7.54987 0.456896 12.3878 1.87913 16.6119 4.4903C21.3611 7.42608 25.1129 11.7279 27.3757 16.8321C29.6385 21.9364 30.3069 27.6051 29.2932 33.0957C28.3916 37.9791 26.1968 42.5191 22.9529 46.2496C22.2833 47.0196 21.1083 47.0193 20.3846 46.2999L18.5394 44.4657C17.8157 43.7463 17.8192 42.5812 18.4736 41.7982C20.8311 38.9773 22.4297 35.5881 23.1009 31.9525C23.8843 27.7094 23.3678 23.3287 21.6191 19.3841C19.8704 15.4396 16.9711 12.1152 13.3009 9.84647C10.1562 7.90254 6.57126 6.81129 2.89789 6.66397C1.8783 6.62308 1.01259 5.84328 0.965479 4.82396L0.845375 2.22505Z" fill="#FF6C2B"/>
</svg>
