<svg width="14" height="15" viewBox="0 0 14 15" fill="none" xmlns="http://www.w3.org/2000/svg">
<g id="Group">
<path id="Vector" d="M3.00033 13.4999C3.73671 13.4999 4.33366 12.903 4.33366 12.1666C4.33366 11.4302 3.73671 10.8333 3.00033 10.8333C2.26395 10.8333 1.66699 11.4302 1.66699 12.1666C1.66699 12.903 2.26395 13.4999 3.00033 13.4999Z" stroke="#05918A" stroke-width="1.5" stroke-linecap="round" stroke-linejoin="round"/>
<path id="Vector_2" d="M10.3333 13.4999C11.0697 13.4999 11.6667 12.903 11.6667 12.1666C11.6667 11.4302 11.0697 10.8333 10.3333 10.8333C9.59695 10.8333 9 11.4302 9 12.1666C9 12.903 9.59695 13.4999 10.3333 13.4999Z" stroke="#05918A" stroke-width="1.5" stroke-linecap="round" stroke-linejoin="round"/>
<path id="Vector_3" d="M10.3337 10.8333H3.00033V1.5H1.66699" stroke="#05918A" stroke-width="1.5" stroke-linecap="round" stroke-linejoin="round"/>
<path id="Vector_4" d="M3 2.83325L12.3333 3.49992L11.6667 8.16659H3" stroke="#05918A" stroke-width="1.5" stroke-linecap="round" stroke-linejoin="round"/>
</g>
</svg>
